<svg xmlns="http://www.w3.org/2000/svg" viewBox="0 0 96 96" role="img" aria-labelledby="title">
  <title>Unsolicited Advice Lab mark</title>
  <defs>
    <linearGradient id="neon" x1="14" y1="14" x2="82" y2="82" gradientUnits="userSpaceOnUse">
      <stop offset="0" stop-color="#72ffb6"/>
      <stop offset="0.58" stop-color="#67f1c4"/>
      <stop offset="1" stop-color="#3cc8ff"/>
    </linearGradient>
    <radialGradient id="liquid" cx="48" cy="63" r="28" gradientUnits="userSpaceOnUse">
      <stop offset="0" stop-color="#72ffb6" stop-opacity="0.42"/>
      <stop offset="0.62" stop-color="#72ffb6" stop-opacity="0.22"/>
      <stop offset="1" stop-color="#3cc8ff" stop-opacity="0.08"/>
    </radialGradient>
    <filter id="glow" x="-40%" y="-40%" width="180%" height="180%">
      <feGaussianBlur stdDeviation="2.3" result="blur"/>
      <feMerge>
        <feMergeNode in="blur"/>
        <feMergeNode in="SourceGraphic"/>
      </feMerge>
    </filter>
  </defs>
  <g fill="none" stroke-linecap="round" stroke-linejoin="round">
    <path d="M39 14v18L19 72c-3.6 7.2 1.6 15.5 9.7 15.5h38.6c8.1 0 13.3-8.3 9.7-15.5L57 32V14"
          stroke="#10241f" stroke-width="9"/>
    <path d="M39 14v18L19 72c-3.6 7.2 1.6 15.5 9.7 15.5h38.6c8.1 0 13.3-8.3 9.7-15.5L57 32V14"
          stroke="url(#neon)" stroke-width="4.5" filter="url(#glow)"/>
    <path d="M34 14h28" stroke="#10241f" stroke-width="9"/>
    <path d="M34 14h28" stroke="url(#neon)" stroke-width="4.5" filter="url(#glow)"/>
    <path d="M31 68c7-5 13 4 21-1 7-4 12-1 17 2l2 4c2.1 4.2-.9 9-5.6 9H30.6c-4.7 0-7.7-4.8-5.6-9l2-4c1.3.3 2.6-.1 4-1z"
          fill="url(#liquid)" stroke="rgba(114,255,182,0.58)" stroke-width="2"/>
    <path d="M36 57l10 6-10 6" stroke="#72ffb6" stroke-width="4" filter="url(#glow)"/>
    <path d="M52 68h18" stroke="#72ffb6" stroke-width="5" filter="url(#glow)"/>
    <path d="M43 13V7" stroke="url(#neon)" stroke-width="3.6"/>
    <path d="M53 13V7" stroke="url(#neon)" stroke-width="3.6"/>
    <circle cx="43" cy="5" r="3.5" fill="#050607" stroke="url(#neon)" stroke-width="3"/>
    <circle cx="53" cy="5" r="3.5" fill="#050607" stroke="url(#neon)" stroke-width="3"/>
    <path d="M27 35l8-3" stroke="rgba(114,255,182,0.42)" stroke-width="2"/>
    <path d="M69 35l-8-3" stroke="rgba(60,200,255,0.42)" stroke-width="2"/>
  </g>
</svg>
